<?xml version="1.0" encoding="UTF-8" standalone="no"?>
<!-- Created with Inkscape (http://www.inkscape.org/) -->
<svg
   xmlns:dc="http://purl.org/dc/elements/1.1/"
   xmlns:cc="http://creativecommons.org/ns#"
   xmlns:rdf="http://www.w3.org/1999/02/22-rdf-syntax-ns#"
   xmlns:svg="http://www.w3.org/2000/svg"
   xmlns="http://www.w3.org/2000/svg"
   xmlns:sodipodi="http://sodipodi.sourceforge.net/DTD/sodipodi-0.dtd"
   xmlns:inkscape="http://www.inkscape.org/namespaces/inkscape"
   width="16"
   height="16"
   id="svg2"
   sodipodi:version="0.32"
   inkscape:version="0.46"
   version="1.0"
   sodipodi:docname="LogoForFavicon.svg"
   inkscape:output_extension="org.inkscape.output.svg.inkscape"
   inkscape:export-filename="D:\WebDesign\RS-MET\graphics\Drawings\PNG\Favicon.png"
   inkscape:export-xdpi="90"
   inkscape:export-ydpi="90">
  <defs
     id="defs4">
    <linearGradient
       id="linearGradient3391">
      <stop
         style="stop-color:#000000;stop-opacity:1;"
         offset="0"
         id="stop3393" />
      <stop
         style="stop-color:#000000;stop-opacity:0;"
         offset="1"
         id="stop3395" />
    </linearGradient>
    <linearGradient
       id="linearGradient3254">
      <stop
         style="stop-color:#000000;stop-opacity:1;"
         offset="0"
         id="stop3256" />
      <stop
         id="stop3262"
         offset="0.5"
         style="stop-color:#323232;stop-opacity:1;" />
      <stop
         style="stop-color:#000000;stop-opacity:1;"
         offset="1"
         id="stop3258" />
    </linearGradient>
    <linearGradient
       id="linearGradient3234">
      <stop
         style="stop-color:#646464;stop-opacity:1;"
         offset="0"
         id="stop3236" />
      <stop
         style="stop-color:#000000;stop-opacity:1;"
         offset="1"
         id="stop3238" />
    </linearGradient>
    <linearGradient
       id="linearGradient3216">
      <stop
         style="stop-color:#808080;stop-opacity:0;"
         offset="0"
         id="stop3218" />
      <stop
         id="stop3226"
         offset="0.5"
         style="stop-color:#808080;stop-opacity:1;" />
      <stop
         style="stop-color:#808080;stop-opacity:0;"
         offset="1"
         id="stop3220" />
    </linearGradient>
    <inkscape:perspective
       sodipodi:type="inkscape:persp3d"
       inkscape:vp_x="0 : 526.18109 : 1"
       inkscape:vp_y="0 : 1000 : 0"
       inkscape:vp_z="744.09448 : 526.18109 : 1"
       inkscape:persp3d-origin="372.04724 : 350.78739 : 1"
       id="perspective10" />
    <inkscape:perspective
       id="perspective3383"
       inkscape:persp3d-origin="372.04724 : 350.78739 : 1"
       inkscape:vp_z="744.09448 : 526.18109 : 1"
       inkscape:vp_y="0 : 1000 : 0"
       inkscape:vp_x="0 : 526.18109 : 1"
       sodipodi:type="inkscape:persp3d" />
    <inkscape:perspective
       id="perspective2554"
       inkscape:persp3d-origin="372.04724 : 350.78739 : 1"
       inkscape:vp_z="744.09448 : 526.18109 : 1"
       inkscape:vp_y="0 : 1000 : 0"
       inkscape:vp_x="0 : 526.18109 : 1"
       sodipodi:type="inkscape:persp3d" />
  </defs>
  <sodipodi:namedview
     id="base"
     pagecolor="#e6e6ff"
     bordercolor="#666666"
     borderopacity="1.0"
     gridtolerance="10000"
     guidetolerance="10"
     objecttolerance="10"
     inkscape:pageopacity="1"
     inkscape:pageshadow="2"
     inkscape:zoom="16.419686"
     inkscape:cx="15.165989"
     inkscape:cy="11.265704"
     inkscape:document-units="px"
     inkscape:current-layer="layer1"
     showgrid="true"
     inkscape:window-width="1680"
     inkscape:window-height="994"
     inkscape:window-x="-4"
     inkscape:window-y="-4"
     showguides="true"
     inkscape:guide-bbox="true">
    <inkscape:grid
       type="xygrid"
       id="grid2699"
       visible="true"
       enabled="true"
       spacingx="1px"
       spacingy="1px"
       empspacing="4" />
    <inkscape:grid
       type="xygrid"
       id="grid2400"
       visible="true"
       enabled="true" />
  </sodipodi:namedview>
  <metadata
     id="metadata7">
    <rdf:RDF>
      <cc:Work
         rdf:about="">
        <dc:format>image/svg+xml</dc:format>
        <dc:type
           rdf:resource="http://purl.org/dc/dcmitype/StillImage" />
      </cc:Work>
    </rdf:RDF>
  </metadata>
  <g
     inkscape:label="Layer 1"
     inkscape:groupmode="layer"
     id="layer1">
    <g
       id="g3453"
       inkscape:export-filename="D:\WebDesign\Drawings\rs-met-Logo3-2-1024.png"
       inkscape:export-xdpi="90"
       inkscape:export-ydpi="90"
       transform="matrix(3.9992687e-2,0,0,4.0064103e-2,0.5217117,-2.6379673)">
      <path
         inkscape:export-ydpi="600"
         inkscape:export-xdpi="600"
         inkscape:export-filename="D:\WebDesign\Drawings\rs-met-Logo3-1.png"
         sodipodi:nodetypes="cccccccc"
         id="path2701"
         d="M 120.75939,65.843663 L 120.75939,392.24366 L 139.95939,392.24366 L 139.95939,161.84366 C 178.35939,181.04366 216.75939,219.44366 216.75939,257.84366 L 216.75939,238.64366 C 216.75939,123.44366 139.95939,161.84366 120.75939,65.843663 L 120.75939,65.843663 z"
         style="fill:#000000;fill-opacity:1;fill-rule:evenodd;stroke:none;stroke-width:1px;stroke-linecap:butt;stroke-linejoin:miter;stroke-opacity:1" />
      <path
         inkscape:export-ydpi="600"
         inkscape:export-xdpi="600"
         inkscape:export-filename="D:\WebDesign\Drawings\rs-met-Logo3-1.png"
         transform="matrix(1.1428571,0,0,1.5,-42.897752,-327.75634)"
         d="M 160,480 A 56,32 0 1 1 48,480 A 56,32 0 1 1 160,480 z"
         sodipodi:ry="32"
         sodipodi:rx="56"
         sodipodi:cy="480"
         sodipodi:cx="104"
         id="path2703"
         style="fill:#000000;fill-opacity:1;stroke:none;stroke-width:1;stroke-linecap:butt;stroke-miterlimit:4;stroke-dasharray:none;stroke-dashoffset:0;stroke-opacity:1"
         sodipodi:type="arc" />
    </g>
    <polyline
       points="21.3333333 64, 22.4053601 60.6343663, 23.4773869 57.2821491, 24.5494137 53.9567111, 25.6214405 50.6713087, 26.6934673 47.4390383, 27.7654941 44.2727848, 28.8375209 41.1851697, 29.9095477 38.1885013, 30.9815745 35.294725, 32.0536013 32.5153764, 33.1256281 29.8615348, 34.1976549 27.3437791, 35.2696817 24.9721458, 36.3417085 22.756089, 37.4137353 20.7044425, 38.4857621 18.8253849, 39.5577889 17.1264065, 40.6298157 15.6142799, 41.7018425 14.2950331, 42.7738693 13.1739249, 43.8458961 12.2554242, 44.9179229 11.5431927, 45.9899497 11.0400693, 47.0619765 10.7480598, 48.1340034 10.6683282, 49.2060302 10.8011922, 50.278057 11.1461223, 51.3500838 11.7017434, 52.4221106 12.4658407, 53.4941374 13.4353683, 54.5661642 14.6064614, 55.638191 15.9744516, 56.7102178 17.5338857, 57.7822446 19.2785474, 58.8542714 21.2014819, 59.9262982 23.2950239, 60.998325 25.5508278, 62.0703518 27.9599014, 63.1423786 30.5126414, 64.2144054 33.1988719, 65.2864322 36.0078847, 66.358459 38.9284822, 67.4304858 41.9490222, 68.5025126 45.0574639, 69.5745394 48.241416, 70.6465662 51.4881865, 71.718593 54.7848328, 72.7906198 58.1182134, 73.8626466 61.4750405, 74.9346734 64.8419329, 76.0067002 68.2054691, 77.078727 71.552241, 78.1507538 74.8689075, 79.2227806 78.1422474, 80.2948074 81.3592121, 81.3668342 84.5069779, 82.438861 87.5729968, 83.5108878 90.5450469, 84.5829146 93.4112806, 85.6549414 96.1602724, 86.7269682 98.7810638, 87.798995 101.263208, 88.8710218 103.59681, 89.9430486 105.772567, 91.0150754 107.781807, 92.0871022 109.616519, 93.159129 111.269391, 94.2311558 112.733833, 95.3031826 114.004008, 96.3752094 115.074852, 97.4472362 115.942096, 98.519263 116.602285, 99.5912898 117.052785, 100.663317 117.291801, 101.735343 117.31838, 102.80737 117.132417, 103.879397 116.734653, 104.951424 116.126672, 106.023451 115.310899, 107.095477 114.290586, 108.167504 113.0698, 109.239531 111.653408, 110.311558 110.047055, 111.383585 108.257145, 112.455611 106.290812, 113.527638 104.155897, 114.599665 101.860908, 115.671692 99.4149943, 116.743719 96.8279062, 117.815745 94.1099564, 118.887772 91.2719795, 119.959799 88.3252885, 121.031826 85.2816297, 122.103853 82.1531362, 123.175879 78.9522789, 124.247906 75.6918174, 125.319933 72.384749, 126.39196 69.0442564, 127.463987 65.683656, 128.536013 62.316344, 129.60804 58.9557436, 130.680067 55.615251, 131.752094 52.3081826, 132.824121 49.0477211, 133.896147 45.8468638, 134.968174 42.7183703, 136.040201 39.6747115, 137.112228 36.7280205, 138.184255 33.8900436, 139.256281 31.1720938, 140.328308 28.5850057, 141.400335 26.1390921, 142.472362 23.8441033, 143.544389 21.7091876, 144.616415 19.7428555, 145.688442 17.9529453, 146.760469 16.3465922, 147.832496 14.9301996, 148.904523 13.7094136, 149.976549 12.6891006, 151.048576 11.873328, 152.120603 11.2653475, 153.19263 10.8675828, 154.264657 10.6816195, 155.336683 10.708199, 156.40871 10.9472151, 157.480737 11.3977153, 158.552764 12.0579036, 159.624791 12.9251483, 160.696817 13.9959923, 161.768844 15.266167, 162.840871 16.7306091, 163.912898 18.3834808, 164.984925 20.2181933, 166.056951 22.227433, 167.128978 24.4031904, 168.201005 26.7367922, 169.273032 29.2189362, 170.345059 31.8397276, 171.417085 34.5887194, 172.489112 37.4549531, 173.561139 40.4270032, 174.633166 43.4930221, 175.705193 46.6407879, 176.777219 49.8577526, 177.849246 53.1310925, 178.921273 56.447759, 179.9933 59.7945309, 181.065327 63.1580671, 182.137353 66.5249595, 183.20938 69.8817866, 184.281407 73.2151672, 185.353434 76.5118135, 186.425461 79.758584, 187.497487 82.9425361, 188.569514 86.0509778, 189.641541 89.0715178, 190.713568 91.9921153, 191.785595 94.8011281, 192.857621 97.4873586, 193.929648 100.040099, 195.001675 102.449172, 196.073702 104.704976, 197.145729 106.798518, 198.217755 108.721453, 199.289782 110.466114, 200.361809 112.025548, 201.433836 113.393539, 202.505863 114.564632, 203.577889 115.534159, 204.649916 116.298257, 205.721943 116.853878, 206.79397 117.198808, 207.865997 117.331672, 208.938023 117.25194, 210.01005 116.959931, 211.082077 116.456807, 212.154104 115.744576, 213.226131 114.826075, 214.298157 113.704967, 215.370184 112.38572, 216.442211 110.873594, 217.514238 109.174615, 218.586265 107.295557, 219.658291 105.243911, 220.730318 103.027854, 221.802345 100.656221, 222.874372 98.1384652, 223.946399 95.4846236, 225.018425 92.705275, 226.090452 89.8114987, 227.162479 86.8148303, 228.234506 83.7272152, 229.306533 80.5609617, 230.378559 77.3286913, 231.450586 74.0432889, 232.522613 70.7178509, 233.59464 67.3656337, 234.666667 64, "
       style="fill:none;fill-opacity:1;stroke:#000000;stroke-width:28.96209362;stroke-linecap:round;stroke-miterlimit:4;stroke-dasharray:none;stroke-opacity:1"
       id="polyline20"
       transform="matrix(4.1654012e-2,0,0,2.8620898e-2,5.0720325,11.247365)"
       inkscape:transform-center-x="-119.32552"
       inkscape:transform-center-y="-97.08491"
       inkscape:export-filename="D:\WebDesign\Drawings\rs-met-Logo3-1.png"
       inkscape:export-xdpi="600"
       inkscape:export-ydpi="600" />
  </g>
</svg>
