<?xml version="1.0" encoding="UTF-8" standalone="no"?>
<!-- Created with Inkscape (http://www.inkscape.org/) -->

<svg
   xmlns:dc="http://purl.org/dc/elements/1.1/"
   xmlns:cc="http://creativecommons.org/ns#"
   xmlns:rdf="http://www.w3.org/1999/02/22-rdf-syntax-ns#"
   xmlns:svg="http://www.w3.org/2000/svg"
   xmlns="http://www.w3.org/2000/svg"
   xmlns:xlink="http://www.w3.org/1999/xlink"
   xmlns:sodipodi="http://sodipodi.sourceforge.net/DTD/sodipodi-0.dtd"
   xmlns:inkscape="http://www.inkscape.org/namespaces/inkscape"
   width="1024"
   height="512"
   id="svg2"
   sodipodi:version="0.32"
   inkscape:version="0.91 r13725"
   version="1.0"
   sodipodi:docname="Logo - Copy.svg"
   inkscape:output_extension="org.inkscape.output.svg.inkscape"
   inkscape:export-filename="D:\WebDesign\Drawings\rs-met-Logo3-2-1024.png"
   inkscape:export-xdpi="90"
   inkscape:export-ydpi="90">
  <defs
     id="defs4">
    <linearGradient
       id="linearGradient3391">
      <stop
         style="stop-color:#000000;stop-opacity:1;"
         offset="0"
         id="stop3393" />
      <stop
         style="stop-color:#000000;stop-opacity:0;"
         offset="1"
         id="stop3395" />
    </linearGradient>
    <linearGradient
       id="linearGradient3254">
      <stop
         style="stop-color:#000000;stop-opacity:1;"
         offset="0"
         id="stop3256" />
      <stop
         id="stop3262"
         offset="0.5"
         style="stop-color:#323232;stop-opacity:1;" />
      <stop
         style="stop-color:#000000;stop-opacity:1;"
         offset="1"
         id="stop3258" />
    </linearGradient>
    <linearGradient
       id="linearGradient3234">
      <stop
         style="stop-color:#646464;stop-opacity:1;"
         offset="0"
         id="stop3236" />
      <stop
         style="stop-color:#000000;stop-opacity:1;"
         offset="1"
         id="stop3238" />
    </linearGradient>
    <linearGradient
       id="linearGradient3216">
      <stop
         style="stop-color:#808080;stop-opacity:0;"
         offset="0"
         id="stop3218" />
      <stop
         id="stop3226"
         offset="0.5"
         style="stop-color:#808080;stop-opacity:1;" />
      <stop
         style="stop-color:#808080;stop-opacity:0;"
         offset="1"
         id="stop3220" />
    </linearGradient>
    <inkscape:perspective
       sodipodi:type="inkscape:persp3d"
       inkscape:vp_x="0 : 526.18109 : 1"
       inkscape:vp_y="0 : 1000 : 0"
       inkscape:vp_z="744.09448 : 526.18109 : 1"
       inkscape:persp3d-origin="372.04724 : 350.78739 : 1"
       id="perspective10" />
    <inkscape:perspective
       id="perspective3383"
       inkscape:persp3d-origin="372.04724 : 350.78739 : 1"
       inkscape:vp_z="744.09448 : 526.18109 : 1"
       inkscape:vp_y="0 : 1000 : 0"
       inkscape:vp_x="0 : 526.18109 : 1"
       sodipodi:type="inkscape:persp3d" />
    <inkscape:perspective
       id="perspective2554"
       inkscape:persp3d-origin="372.04724 : 350.78739 : 1"
       inkscape:vp_z="744.09448 : 526.18109 : 1"
       inkscape:vp_y="0 : 1000 : 0"
       inkscape:vp_x="0 : 526.18109 : 1"
       sodipodi:type="inkscape:persp3d" />
  </defs>
  <sodipodi:namedview
     id="base"
     pagecolor="#ffffff"
     bordercolor="#666666"
     borderopacity="1.0"
     gridtolerance="10000"
     guidetolerance="10"
     objecttolerance="10"
     inkscape:pageopacity="0.0"
     inkscape:pageshadow="2"
     inkscape:zoom="0.7"
     inkscape:cx="262.32695"
     inkscape:cy="21.67277"
     inkscape:document-units="px"
     inkscape:current-layer="layer1"
     showgrid="false"
     inkscape:window-width="1920"
     inkscape:window-height="1057"
     inkscape:window-x="-8"
     inkscape:window-y="-8"
     showguides="true"
     inkscape:guide-bbox="true"
     inkscape:window-maximized="1">
    <inkscape:grid
       type="xygrid"
       id="grid2699"
       visible="true"
       enabled="true"
       spacingx="16px"
       spacingy="16px"
       empspacing="64" />
  </sodipodi:namedview>
  <metadata
     id="metadata7">
    <rdf:RDF>
      <cc:Work
         rdf:about="">
        <dc:format>image/svg+xml</dc:format>
        <dc:type
           rdf:resource="http://purl.org/dc/dcmitype/StillImage" />
      </cc:Work>
    </rdf:RDF>
  </metadata>
  <g
     inkscape:label="Layer 1"
     inkscape:groupmode="layer"
     id="layer1">
    <image
       sodipodi:absref="E:\WebDesign\WebMirror\rs-met\graphics\Drawings\bilinearGradienBlue128x64.bmp"
       xlink:href="bilinearGradienBlue128x64.bmp"
       inkscape:export-ydpi="90"
       inkscape:export-xdpi="90"
       inkscape:export-filename="D:\WebDesign\Drawings\rs-met-Logo3-2-1024.png"
       width="1024"
       height="512"
       id="image2556"
       x="0"
       y="0" />
    <text
       xml:space="preserve"
       style="font-size:180.16293335px;font-style:normal;font-variant:normal;font-weight:normal;font-stretch:normal;text-align:start;line-height:125%;writing-mode:lr-tb;text-anchor:start;fill:#000000;fill-opacity:1;stroke:none;stroke-width:1px;stroke-linecap:butt;stroke-linejoin:miter;stroke-opacity:1;font-family:Arial;-inkscape-font-specification:Arial"
       x="238.93762"
       y="299.14023"
       id="text3475"
       sodipodi:linespacing="125%"
       inkscape:export-filename="D:\WebDesign\Drawings\rs-met-Logo3-2-1024.png"
       inkscape:export-xdpi="90"
       inkscape:export-ydpi="90"
       transform="scale(1.045754,0.9562479)"><tspan
         sodipodi:role="line"
         id="tspan3477"
         x="238.93762"
         y="299.14023"
         style="fill:#000000;fill-opacity:1;stroke:none;stroke-opacity:1">RS-MET</tspan></text>
    <g
       id="g3453"
       inkscape:export-filename="D:\WebDesign\Drawings\rs-met-Logo3-2-1024.png"
       inkscape:export-xdpi="90"
       inkscape:export-ydpi="90">
      <path
         inkscape:export-ydpi="600"
         inkscape:export-xdpi="600"
         inkscape:export-filename="D:\WebDesign\Drawings\rs-met-Logo3-1.png"
         sodipodi:nodetypes="cccccccc"
         id="path2701"
         d="M 120.75939,65.843663 L 120.75939,392.24366 L 139.95939,392.24366 L 139.95939,161.84366 C 178.35939,181.04366 216.75939,219.44366 216.75939,257.84366 L 216.75939,238.64366 C 216.75939,123.44366 139.95939,161.84366 120.75939,65.843663 L 120.75939,65.843663 z"
         style="fill:#000000;fill-opacity:1;fill-rule:evenodd;stroke:none;stroke-width:1px;stroke-linecap:butt;stroke-linejoin:miter;stroke-opacity:1" />
      <path
         inkscape:export-ydpi="600"
         inkscape:export-xdpi="600"
         inkscape:export-filename="D:\WebDesign\Drawings\rs-met-Logo3-1.png"
         transform="matrix(1.1428571,0,0,1.5,-42.897752,-327.75634)"
         d="M 160,480 A 56,32 0 1 1 48,480 A 56,32 0 1 1 160,480 z"
         sodipodi:ry="32"
         sodipodi:rx="56"
         sodipodi:cy="480"
         sodipodi:cx="104"
         id="path2703"
         style="fill:#000000;fill-opacity:1;stroke:none;stroke-width:1;stroke-linecap:butt;stroke-miterlimit:4;stroke-dasharray:none;stroke-dashoffset:0;stroke-opacity:1"
         sodipodi:type="arc" />
    </g>
    <path
       style="fill:none;fill-rule:evenodd;stroke:#000000;stroke-width:16;stroke-linecap:round;stroke-linejoin:miter;stroke-miterlimit:4;stroke-dasharray:none;stroke-opacity:1"
       d="m 134.3207,394.93509 c 7.0119,-7.69645 12.5952,-13.25002 20.0536,-20.41074 9.613,-8.15476 20.0297,-16.22023 33.76211,-16.33927 13.7325,-0.0595 24.1491,8.00594 33.76219,16.1607 7.4584,7.16072 13.04169,12.71429 20.16639,20.52531 7.1247,7.8111 12.7081,13.3647 20.1664,20.5254 9.6131,8.1548 20.0298,16.2202 33.7622,16.3393 13.7324,0.06 24.1491,-8.006 33.7622,-16.1607 7.4583,-7.1607 13.0416,-12.7143 20.14298,-20.5253 7.10138,-7.81115 12.68468,-13.36472 20.14308,-20.52544 9.613,-8.15476 20.02971,-16.22023 33.76211,-16.33927 13.7325,-0.0595 24.1491,8.00594 33.7622,16.1607 7.4584,7.16072 13.0417,12.71429 20.1664,20.52531 7.1247,7.8111 12.7081,13.3647 20.1664,20.5254 9.6131,8.1548 20.0298,16.2202 33.7622,16.3393 13.7324,0.06 24.1491,-8.006 33.7622,-16.1607 7.4583,-7.1607 13.0416,-12.7143 20.29091,-20.6286 7.24931,-7.91444 12.83261,-13.46801 20.29101,-20.62873 9.613,-8.15476 20.02971,-16.22023 33.76211,-16.33927 13.7325,-0.0595 24.1491,8.00594 33.76221,16.1607 7.4584,7.16072 13.0417,12.71429 20.1664,20.5253 7.1247,7.8112 12.7081,13.3648 20.1664,20.5255 9.6131,8.1548 20.0298,16.2202 33.7622,16.3393 13.7324,0.06 24.1491,-8.006 33.7622,-16.1607 7.4583,-7.1607 13.0416,-12.7143 20.14298,-20.5254 7.10138,-7.81114 12.68468,-13.36471 20.14308,-20.52543 9.613,-8.15476 20.02971,-16.22023 33.76211,-16.33927 13.73249,-0.0595 24.14909,8.00594 33.76219,16.1607 7.4584,7.16072 13.0417,12.71429 20.1664,20.5253 7.1247,7.8112 12.7081,13.3648 20.1664,20.5255 9.6131,8.1548 20.0298,16.2202 33.7622,16.3393 13.7324,0.06 24.1491,-8.006 33.7622,-16.1607 7.4583,-7.1607 13.0416,-12.7143 20.05351,-20.4108"
       id="path4179-2"
       inkscape:connector-curvature="0"
       inkscape:transform-center-x="-1.0553662"
       inkscape:transform-center-y="1.9482233"
       sodipodi:nodetypes="ccccccccccccccccccccccccccccccccc" />
  </g>
</svg>
